<svg width="30" height="34" viewBox="0 0 30 34" fill="none" xmlns="http://www.w3.org/2000/svg">
<path d="M6.25688 7.36201C6.24941 7.37762 6.2446 7.39433 6.24266 7.41146C6.23752 7.45735 6.23073 7.50724 6.22347 7.55996C6.20126 7.70085 6.18753 7.84287 6.18235 7.98535C6.13467 10.5145 6.08788 13.0439 6.04202 15.5734C5.99706 18.0209 5.95172 20.4684 5.90595 22.9159C5.90035 23.2213 5.88266 23.5265 5.86573 23.8217C5.85998 23.9213 5.85422 24.0198 5.84908 24.116C3.30887 25.0995 1.37135 26.9589 0.386715 29.3613C0.116062 30.0218 -0.111045 30.7413 0.0583025 31.5268C0.148538 31.9521 0.330087 32.3536 0.590817 32.7045C0.851549 33.0556 1.18547 33.3479 1.57033 33.5622C2.08406 33.851 2.66612 34.0021 3.25806 34C3.63403 33.9997 4.00759 33.9409 4.36488 33.8259C5.52114 33.4547 6.41277 32.7011 7.09091 31.5209C7.78471 30.2938 8.15286 28.9151 8.16145 27.5115C8.18564 26.1762 8.2131 24.8408 8.24384 23.5052C8.30235 20.8237 8.36283 18.0509 8.37992 15.323C8.38778 14.1044 8.32142 12.8675 8.25746 11.6712C8.21981 10.9707 8.18186 10.2465 8.15767 9.53491C8.15053 9.39565 8.13594 9.2569 8.11395 9.11915C8.06587 8.77955 8.02036 8.45791 8.19591 8.12632C14.1857 6.46807 20.3236 4.42639 26.9505 1.88757C26.9647 2.33974 26.947 2.76238 26.9299 3.17297C26.9204 3.40314 26.911 3.62968 26.9072 3.85599C26.8942 4.64242 26.8802 5.42874 26.8648 6.21488C26.8212 8.53763 26.7763 10.9393 26.7789 13.302C26.7804 14.6478 26.8369 16.0146 26.8915 17.3365C26.9218 18.0623 26.952 18.8128 26.9741 19.5508C26.9771 19.8184 26.9658 20.0862 26.9402 20.3527C26.9322 20.4567 26.9242 20.5606 26.9177 20.6645C26.7899 20.7437 26.6647 20.8214 26.5421 20.8977C26.229 21.0915 25.9332 21.2749 25.6396 21.4664C24.1579 22.4506 22.9182 23.747 22.0107 25.2609C21.0537 26.8189 21.0037 28.3803 21.862 29.9018C22.7951 31.5562 24.5385 32.1453 26.3027 31.4016C27.1392 31.0451 27.8635 30.4756 28.4008 29.7521C29.1266 28.7961 29.5666 27.6546 29.784 26.1596C30.0713 24.1871 30.0184 22.1927 29.9292 20.5018C29.8841 19.6447 29.8373 18.7874 29.7887 17.9302C29.6805 15.9809 29.5686 13.9652 29.4875 11.9824C29.3951 9.72215 29.3263 7.42364 29.2598 5.19948C29.2288 4.16091 29.1969 3.12232 29.1643 2.08385L29.1579 1.86705C29.1503 1.58491 29.1428 1.29466 29.1115 1.00776C29.0566 0.499169 28.7776 0.13414 28.3459 0.00658334C28.3195 -0.0013448 28.2914 -0.00213449 28.2644 0.00433514C27.9844 0.0714548 27.7263 0.131787 27.4833 0.188215C26.9875 0.303744 26.5595 0.403371 26.1313 0.519791C24.8837 0.859101 23.6177 1.21149 22.3934 1.55243L20.9095 1.96494C16.6061 3.15824 12.33 4.50018 8.19984 5.9532C7.48858 6.20371 6.68281 6.48738 6.25688 7.36201ZM5.93859 25.9747C5.99928 26.1112 6.04002 26.2555 6.05957 26.4033C6.14757 27.7957 5.78698 29.1801 5.02897 30.3601C4.75556 30.8167 4.34121 31.1758 3.84595 31.3856C3.41321 31.5654 3.07149 31.5114 2.77332 31.2142C2.58416 30.6976 2.7733 30.2341 3.00374 29.7665C3.49031 28.7746 4.86703 26.9833 5.92755 25.9455C5.93118 25.9554 5.93481 25.9651 5.93859 25.9747ZM25.4847 28.6107C25.2177 28.8291 24.9531 28.9161 24.7199 28.8632C24.4739 28.8067 24.263 28.5982 24.1103 28.2602C23.9009 27.8315 23.8728 27.3386 24.0323 26.8896L24.0611 26.8057C24.1106 26.6474 24.1732 26.4934 24.2485 26.3452C24.9003 25.1564 25.834 24.171 26.9151 23.0299L26.9316 23.0122C27.0781 24.8729 26.8831 26.3048 26.3089 27.6186C26.1128 28.0054 25.8313 28.3444 25.4847 28.6107Z" fill="#6268CD"/>
</svg>
