<svg width="911" height="895" viewBox="0 0 911 895" fill="none" xmlns="http://www.w3.org/2000/svg">
<path d="M847.559 884.137C871.875 890.529 891.11 869.995 897.448 848.504C903.73 827.202 901.698 803.551 901.7 781.612C901.702 735.801 901.704 689.99 901.706 644.179C901.706 642.305 902.692 641.078 903.991 640.468V52.0271C903.991 23.2953 879.463 0 849.214 0H749.481C755.229 0 760.742 0.968996 765.91 2.68977C766.505 1.20646 767.949 0.146639 769.915 0.814157C779.572 4.0943 786.479 9.58163 791.444 16.4478H810.639C838.923 16.4478 861.866 39.3902 861.866 67.6995V828.255C861.866 856.541 838.923 879.483 810.639 879.483H786.234C780.257 884.187 773.382 887.435 766.085 889.695H842.356C841.586 886.861 843.828 883.156 847.559 884.137Z" fill="#C4CC23"/>
<path d="M805.709 234.322C805.737 236.905 803.479 238.014 801.509 237.665V444.618C814.49 473.365 827.891 501.924 841.797 530.226L841.709 464.145C841.703 459.594 848.762 459.602 848.768 464.145C848.803 490.965 848.84 517.788 848.875 544.608C853.154 553.175 857.483 561.719 861.868 570.234V67.699C861.868 39.3902 838.925 16.4473 810.64 16.4473H791.445C805.61 36.0324 803.852 66.9149 804.113 90.4231C804.644 138.39 805.177 186.356 805.709 234.322Z" fill="#E4DBE6"/>
<path d="M849.137 741.377C849.143 745.927 842.085 745.919 842.078 741.377C841.984 670.993 841.89 600.609 841.797 530.225C827.891 501.923 814.49 473.365 801.509 444.617V570.891C802.697 571.344 803.642 572.387 803.662 574.032L806.449 797.235C806.76 822.093 810.641 853.229 792.646 873.46C790.657 875.696 788.509 877.69 786.235 879.481H810.64C838.924 879.481 861.867 856.54 861.867 828.254V570.233C857.484 561.719 853.154 553.175 848.874 544.607C848.962 610.198 849.05 675.786 849.137 741.377Z" fill="#D5C8D8"/>
<path d="M727.119 887.836C754.26 887.074 786.841 882.529 796.267 852.486C800.464 839.109 799.723 824.519 799.558 810.682C799.377 795.444 799.177 780.204 798.987 764.966C798.192 701.322 797.397 637.677 796.603 574.032C796.567 571.132 799.419 570.092 801.509 570.892V237.665C800.007 237.4 798.673 236.287 798.65 234.322C798.219 195.406 797.785 156.49 797.353 117.574C797.147 98.8633 797.373 80.0869 796.658 61.3882C795.841 40.0878 790.859 15.3721 768.039 7.62175C765.709 6.83002 765.204 4.4587 765.911 2.68977C760.742 0.968996 755.229 0 749.482 0H140.208C111.477 0 88.1802 23.2959 88.1802 52.0271V75.7469C110.041 78.7349 129.854 90.9948 143.668 109.019C152.892 121.045 132.443 132.739 123.361 120.879C114.277 109.044 101.547 102.148 88.1807 99.9374V265.691C112.771 266.797 135.385 279.693 150.633 299.6C159.857 311.624 139.408 323.343 130.326 311.483C119.69 297.576 103.994 290.493 88.1807 289.788V456.272C112.771 457.378 135.385 470.272 150.633 490.18C159.857 502.205 139.408 513.924 130.326 502.064C119.69 488.157 103.994 481.074 88.1807 480.368V653.746C112.771 654.852 135.385 667.749 150.633 687.654C159.857 699.679 139.408 711.398 130.326 699.538C119.69 685.631 103.994 678.548 88.1807 677.842V837.667C88.1807 866.398 111.477 889.694 140.208 889.694H724.132C724.646 888.665 725.636 887.877 727.119 887.836Z" fill="#EDE2F0"/>
<path d="M25.8937 136.623C34.6469 108.598 62.5547 95.6782 88.1803 99.9377C101.547 102.149 114.277 109.044 123.36 120.88C132.442 132.74 152.891 121.045 143.668 109.02C129.854 90.9952 110.04 78.7353 88.1798 75.7473C80.4147 74.6651 72.3667 74.7586 64.2492 76.1938C35.9645 81.1827 11.6564 103.019 3.18494 130.363C-5.61591 158.812 4.29126 192.203 27.1166 211.311C44.3413 225.758 66.7672 231.006 88.1798 227.524V203.805C50.6253 212.699 13.445 176.461 25.8937 136.623Z" fill="#13234A"/>
<path d="M32.8582 327.202C40.8132 301.717 64.6502 288.728 88.1807 289.788C103.994 290.493 119.69 297.576 130.326 311.483C139.408 323.343 159.857 311.625 150.633 299.6C135.385 279.693 112.771 266.797 88.1807 265.691C82.6037 265.41 76.9325 265.762 71.2148 266.773C42.9312 271.786 18.622 293.6 10.1517 320.942C1.35081 349.415 11.2569 382.807 34.0822 401.915C49.4488 414.786 68.9557 420.339 88.1813 418.928V395.537C53.1896 398.784 21.1876 364.57 32.8582 327.202Z" fill="#13234A"/>
<path d="M32.8582 517.782C40.8132 492.297 64.6502 479.31 88.1807 480.368C103.994 481.074 119.69 488.157 130.326 502.064C139.408 513.924 159.857 502.206 150.633 490.18C135.385 470.273 112.771 457.378 88.1807 456.272C82.6037 456.013 76.9325 456.366 71.2148 457.378C42.9312 462.366 18.622 484.179 10.1517 511.546C1.35081 539.995 11.2569 573.386 34.0822 592.494C49.4488 605.364 68.9557 610.941 88.1813 609.531V586.142C53.1896 589.366 21.1876 555.15 32.8582 517.782Z" fill="#13234A"/>
<path d="M32.8582 715.258C40.8132 689.773 64.6502 676.784 88.1807 677.842C103.994 678.548 119.69 685.631 130.326 699.538C139.408 711.398 159.857 699.68 150.633 687.654C135.385 667.75 112.771 654.852 88.1807 653.746C82.6037 653.464 76.9325 653.818 71.2148 654.828C42.9312 659.84 18.622 681.654 10.1517 708.999C1.35081 737.472 11.2569 770.863 34.0822 789.969C49.4488 802.841 68.9557 808.394 88.1813 806.982V783.592C53.1656 786.817 21.1876 752.627 32.8582 715.258Z" fill="#13234A"/>
<path d="M768.039 7.62106C790.859 15.3714 795.84 40.0871 796.657 61.3875C797.373 80.0862 797.146 98.8626 797.353 117.573C797.785 156.49 798.218 195.406 798.65 234.321C798.672 236.286 800.007 237.399 801.509 237.664C803.479 238.013 805.737 236.905 805.709 234.321C805.177 186.355 804.644 138.388 804.112 90.4229C803.851 66.9148 805.609 36.0322 791.444 16.4471C786.479 9.58148 779.572 4.09415 769.916 0.813459C767.95 0.14594 766.505 1.20577 765.91 2.68908C765.204 4.45855 765.709 6.82934 768.039 7.62106Z" fill="#13234A"/>
<path d="M792.646 873.46C810.641 853.23 806.759 822.094 806.449 797.236L803.662 574.032C803.642 572.388 802.697 571.345 801.509 570.892C799.419 570.093 796.567 571.132 796.603 574.032C797.398 637.678 798.192 701.322 798.988 764.967C799.177 780.204 799.377 795.444 799.558 810.682C799.724 824.52 800.464 839.109 796.267 852.486C786.841 882.529 754.261 887.075 727.119 887.837C725.637 887.877 724.646 888.666 724.132 889.695C723.072 891.817 724.056 894.981 727.119 894.896C739.786 894.541 753.562 893.574 766.086 889.695C773.383 887.435 780.258 884.187 786.235 879.482C788.509 877.691 790.657 875.697 792.646 873.46Z" fill="#13234A"/>
<path d="M849.137 741.377C849.05 675.786 848.962 610.198 848.874 544.607C848.84 517.787 848.804 490.964 848.768 464.144C848.762 459.602 841.703 459.594 841.708 464.144L841.796 530.225C841.89 600.609 841.985 670.993 842.078 741.377C842.085 745.92 849.144 745.927 849.137 741.377Z" fill="#13234A"/>
<path d="M910.341 644.179C910.341 640.495 906.548 639.266 903.991 640.468C902.693 641.079 901.707 642.305 901.707 644.179C901.704 689.99 901.702 735.8 901.7 781.611C901.699 803.55 903.73 827.201 897.448 848.503C891.111 869.995 871.876 890.529 847.559 884.136C843.828 883.155 841.586 886.86 842.357 889.694C842.696 890.944 843.617 892.029 845.264 892.461C862.739 897.057 879.964 890.133 891.861 876.872C906.464 860.592 909.557 838.058 910.192 816.991C911.92 759.488 910.338 701.708 910.341 644.179Z" fill="#13234A"/>
</svg>
