<svg width="114" height="53" viewBox="0 0 114 53" fill="none" xmlns="http://www.w3.org/2000/svg">
<g filter="url(#filter0_i_80_396)">
<rect width="114" height="51.3" rx="25.65" fill="url(#paint0_linear_80_396)"/>
</g>
<path d="M64.7758 14.7554C65.0534 14.3577 65.6692 14.4662 65.7941 14.9349L66.2353 16.5915C66.286 16.7821 66.4317 16.9328 66.6203 16.9902L68.2606 17.4888C68.7247 17.6298 68.8117 18.2491 68.4046 18.5126L66.9654 19.4442C66.7998 19.5514 66.7014 19.7364 66.7052 19.9336L66.7379 21.6477C66.7472 22.1326 66.1851 22.4068 65.8086 22.101L64.4779 21.0201C64.3249 20.8958 64.1184 20.8594 63.9321 20.9239L62.312 21.4847C61.8537 21.6433 61.4192 21.1935 61.5937 20.741L62.2105 19.1413C62.2815 18.9574 62.2523 18.7498 62.1333 18.5925L61.0994 17.225C60.8069 16.8381 61.1004 16.2859 61.5847 16.3121L63.2966 16.4044C63.4935 16.415 63.6819 16.3231 63.7948 16.1614L64.7758 14.7554Z" fill="url(#paint1_linear_80_396)"/>
<path d="M51.8417 7.0618C51.9093 6.96486 52.0594 6.99132 52.0899 7.10554L52.1974 7.50931C52.2098 7.55575 52.2453 7.5925 52.2912 7.60648L52.691 7.728C52.8041 7.76237 52.8253 7.91331 52.7261 7.97754L52.3753 8.20459C52.335 8.2307 52.311 8.27582 52.3119 8.32387L52.3199 8.74164C52.3222 8.85982 52.1852 8.92665 52.0934 8.85212L51.7691 8.58867C51.7318 8.55837 51.6815 8.54951 51.636 8.56523L51.2412 8.70191C51.1295 8.74057 51.0236 8.63094 51.0661 8.52064L51.2164 8.13078C51.2337 8.08593 51.2266 8.03534 51.1976 7.99701L50.9456 7.66371C50.8743 7.56942 50.9459 7.43484 51.0639 7.4412L51.4812 7.46369C51.5292 7.46628 51.5751 7.44388 51.6026 7.40447L51.8417 7.0618Z" fill="url(#paint2_linear_80_396)"/>
<path d="M81.1958 18.8957C81.2657 18.6102 81.6376 18.537 81.8106 18.7747L82.4221 19.6148C82.4925 19.7114 82.6077 19.7648 82.7269 19.756L83.7632 19.6794C84.0563 19.6577 84.2409 19.9887 84.0683 20.2267L83.4583 21.0679C83.3882 21.1646 83.373 21.2908 83.4182 21.4014L83.8113 22.3633C83.9225 22.6354 83.6647 22.9132 83.385 22.8226L82.3965 22.5024C82.2828 22.4656 82.1582 22.4901 82.0669 22.5673L81.2736 23.2384C81.0492 23.4282 80.7053 23.2689 80.705 22.9749L80.7041 21.9359C80.704 21.8163 80.6422 21.7054 80.5405 21.6424L79.6572 21.0954C79.4072 20.9406 79.4525 20.5643 79.732 20.4732L80.7199 20.1512C80.8336 20.1142 80.92 20.021 80.9484 19.905L81.1958 18.8957Z" fill="url(#paint3_linear_80_396)"/>
<path d="M92.9156 12.2001C92.9548 12.0402 93.1631 11.9992 93.26 12.1323L93.6024 12.6028C93.6418 12.6569 93.7064 12.6868 93.7731 12.6819L94.3535 12.639C94.5177 12.6268 94.6211 12.8122 94.5244 12.9455L94.1828 13.4166C94.1435 13.4708 94.135 13.5415 94.1603 13.6034L94.3805 14.1421C94.4428 14.2945 94.2984 14.4502 94.1417 14.3994L93.5881 14.2201C93.5244 14.1994 93.4546 14.2132 93.4035 14.2564L92.9592 14.6323C92.8335 14.7386 92.6409 14.6494 92.6407 14.4847L92.6402 13.9028C92.6402 13.8358 92.6055 13.7737 92.5486 13.7384L92.0538 13.432C91.9139 13.3453 91.9392 13.1346 92.0958 13.0836L92.6491 12.9032C92.7127 12.8825 92.7611 12.8303 92.7771 12.7653L92.9156 12.2001Z" fill="url(#paint4_linear_80_396)"/>
<path d="M75.4785 5.62096C75.6679 5.53985 75.8656 5.71722 75.8054 5.91422L75.5926 6.61055C75.5682 6.69064 75.5868 6.77768 75.642 6.8407L76.1215 7.38862C76.2571 7.54363 76.1495 7.78645 75.9436 7.79009L75.2156 7.80294C75.1319 7.80441 75.0548 7.84906 75.012 7.92099L74.639 8.54634C74.5335 8.72325 74.2693 8.69596 74.2022 8.50121L73.9651 7.81282C73.9378 7.73364 73.8715 7.67419 73.7899 7.65562L73.0799 7.49419C72.879 7.44852 72.8233 7.18883 72.9878 7.06483L73.5692 6.62653C73.6361 6.57612 73.6722 6.49473 73.6646 6.41133L73.5987 5.68621C73.5801 5.48107 73.8099 5.34787 73.9786 5.46598L74.5751 5.88349C74.6437 5.93151 74.7323 5.94066 74.8093 5.90768L75.4785 5.62096Z" fill="url(#paint5_linear_80_396)"/>
<g filter="url(#filter1_d_80_396)">
<g mask="url(#crescent0_80_396)">
<circle cx="25.65" cy="25.6502" r="19.95" fill="url(#paint6_linear_80_396)"/>
<circle cx="25.6499" cy="25.6501" r="16.53" fill="url(#paint7_linear_80_396)"/>
<mask id="mask0_80_396" style="mask-type:alpha" maskUnits="userSpaceOnUse" x="5" y="5" width="41" height="41">
<circle cx="25.65" cy="25.6502" r="19.95" fill="url(#paint8_linear_80_396)"/>
</mask>
<g mask="url(#mask0_80_396)">
<circle cx="43.7" cy="36.7002" r="2" fill="url(#paint9_linear_80_396)"/>
<circle cx="32.7" cy="47.7002" r="4" fill="url(#paint10_linear_80_396)"/>
<circle cx="12.2" cy="46.2002" r="5.5" fill="url(#paint11_linear_80_396)"/>
</g>
</g>
</g>
<defs>
<mask id="crescent0_80_396" maskUnits="userSpaceOnUse">
<circle cx="25.65" cy="25.6502" r="21" fill="white"/>
<circle cx="34" cy="24" r="19.5" fill="black"/>
</mask>
<filter id="filter0_i_80_396" x="0" y="0" width="114" height="57.2998" filterUnits="userSpaceOnUse" color-interpolation-filters="sRGB">
<feFlood flood-opacity="0" result="BackgroundImageFix"/>
<feBlend mode="normal" in="SourceGraphic" in2="BackgroundImageFix" result="shape"/>
<feColorMatrix in="SourceAlpha" type="matrix" values="0 0 0 0 0 0 0 0 0 0 0 0 0 0 0 0 0 0 127 0" result="hardAlpha"/>
<feMorphology radius="3" operator="erode" in="SourceAlpha" result="effect1_innerShadow_80_396"/>
<feOffset dy="6"/>
<feGaussianBlur stdDeviation="4"/>
<feComposite in2="hardAlpha" operator="arithmetic" k2="-1" k3="1"/>
<feColorMatrix type="matrix" values="0 0 0 0 0 0 0 0 0 0 0 0 0 0 0 0 0 0 0.25 0"/>
<feBlend mode="normal" in2="shape" result="effect1_innerShadow_80_396"/>
</filter>
<filter id="filter1_d_80_396" x="1.69995" y="0.700195" width="51.9001" height="51.9004" filterUnits="userSpaceOnUse" color-interpolation-filters="sRGB">
<feFlood flood-opacity="0" result="BackgroundImageFix"/>
<feColorMatrix in="SourceAlpha" type="matrix" values="0 0 0 0 0 0 0 0 0 0 0 0 0 0 0 0 0 0 127 0" result="hardAlpha"/>
<feOffset dx="2" dy="1"/>
<feGaussianBlur stdDeviation="3"/>
<feColorMatrix type="matrix" values="0 0 0 0 0 0 0 0 0 0 0 0 0 0 0 0 0 0 0.25 0"/>
<feBlend mode="normal" in2="BackgroundImageFix" result="effect1_dropShadow_80_396"/>
<feBlend mode="normal" in="SourceGraphic" in2="effect1_dropShadow_80_396" result="shape"/>
</filter>
<linearGradient id="paint0_linear_80_396" x1="58.425" y1="1.995" x2="57" y2="51.3" gradientUnits="userSpaceOnUse">
<stop stop-color="#212E8C"/>
</linearGradient>
<linearGradient id="paint1_linear_80_396" x1="65.4782" y1="13.7489" x2="63.7961" y2="23.2918" gradientUnits="userSpaceOnUse">
<stop stop-color="#ADDDFF"/>
<stop offset="1" stop-color="#EDF6FF" stop-opacity="0"/>
</linearGradient>
<linearGradient id="paint2_linear_80_396" x1="52.0129" y1="6.81648" x2="51.6029" y2="9.14234" gradientUnits="userSpaceOnUse">
<stop stop-color="#ADDDFF"/>
<stop offset="1" stop-color="#EDF6FF" stop-opacity="0"/>
</linearGradient>
<linearGradient id="paint3_linear_80_396" x1="81.3728" y1="18.1732" x2="82.5076" y2="23.9356" gradientUnits="userSpaceOnUse">
<stop stop-color="#ADDDFF"/>
<stop offset="1" stop-color="#EDF6FF" stop-opacity="0"/>
</linearGradient>
<linearGradient id="paint4_linear_80_396" x1="93.0148" y1="11.7954" x2="93.6503" y2="15.0228" gradientUnits="userSpaceOnUse">
<stop stop-color="#ADDDFF"/>
<stop offset="1" stop-color="#EDF6FF" stop-opacity="0"/>
</linearGradient>
<linearGradient id="paint5_linear_80_396" x1="75.9577" y1="5.4157" x2="73.2094" y2="8.47884" gradientUnits="userSpaceOnUse">
<stop stop-color="#ADDDFF"/>
<stop offset="1" stop-color="#EDF6FF" stop-opacity="0"/>
</linearGradient>
<linearGradient id="paint6_linear_80_396" x1="25.65" y1="5.7002" x2="25.65" y2="45.6002" gradientUnits="userSpaceOnUse">
<stop stop-color="#FEF4C0"/>
<stop offset="1" stop-color="#FAD85C"/>
</linearGradient>
<linearGradient id="paint7_linear_80_396" x1="25.6499" y1="9.12012" x2="25.6499" y2="42.1801" gradientUnits="userSpaceOnUse">
<stop stop-color="#FFFAE8"/>
<stop offset="0.9999" stop-color="#FEF4C0"/>
<stop offset="1" stop-color="#FAE880"/>
</linearGradient>
<linearGradient id="paint8_linear_80_396" x1="25.65" y1="5.7002" x2="25.65" y2="45.6002" gradientUnits="userSpaceOnUse">
<stop stop-color="#FFFAE8"/>
<stop offset="1" stop-color="#FAD85C"/>
</linearGradient>
<linearGradient id="paint9_linear_80_396" x1="43.7" y1="34.7002" x2="43.7" y2="38.7002" gradientUnits="userSpaceOnUse">
<stop stop-color="#FAD85C"/>
<stop offset="1" stop-color="#FEF4C0" stop-opacity="0"/>
</linearGradient>
<linearGradient id="paint10_linear_80_396" x1="32.7" y1="43.7002" x2="32.7" y2="51.7002" gradientUnits="userSpaceOnUse">
<stop stop-color="#FAD85C"/>
<stop offset="1" stop-color="#FEF4C0" stop-opacity="0"/>
</linearGradient>
<linearGradient id="paint11_linear_80_396" x1="12.2" y1="40.7002" x2="12.2" y2="51.7002" gradientUnits="userSpaceOnUse">
<stop stop-color="#FAD85C"/>
<stop offset="1" stop-color="#FEF4C0" stop-opacity="0"/>
</linearGradient>
</defs>
</svg>
